# xmcd
#
# Track frame offsets:
#	150
#	7633
#	23017
#	37496
#	53849
#	73022
#	90304
#	102706
#	122615
#	138516
#
# Disc length: 2141 seconds
#
# Revision: 0
# Processed by: cddbd v1.5.2PL0 Copyright (c) Steve Scherf et al.
# Submitted via: EasyCDDAExtractor 15.3.0.1
#
DISCID=80085b0a
DTITLE=RBD - Tour Celestial 2007 - Hecho En España - CD 1
DYEAR=2007
DGENRE=Latin
TTITLE0=Obertura Celestial
TTITLE1=Cariño Mio
TTITLE2=Ser O Parecer
TTITLE3=Wanna Play
TTITLE4=Dame
TTITLE5=Money Money
TTITLE6=Quiero Poder
TTITLE7=Salvame
TTITLE8=Besame Sin Miedo
TTITLE9=I Wanna Be The Rain
EXTD=
EXTT0=
EXTT1=
EXTT2=
EXTT3=
EXTT4=
EXTT5=
EXTT6=
EXTT7=
EXTT8=
EXTT9=
PLAYORDER=
